<svg width="48" height="48" viewBox="0 0 48 48" fill="none" xmlns="http://www.w3.org/2000/svg">
<rect width="48" height="48" fill="white"/>
<path d="M10.8856 13C10.8856 13 22.2 27.2163 18.9673 32.0904C15.7346 36.9646 4.42032 35.3399 4.01623 32.0904C3.61215 28.841 10.8856 13 10.8856 13ZM10.8856 13C26.4024 15.2746 38.0939 13.9478 42 13C42 13 34.3224 28.841 28.6653 28.841" stroke="black" stroke-width="3"/>
<path d="M35.6667 14.0559C35.6667 14.0559 34.6112 18.2781 39.3612 18.2781" stroke="black" stroke-width="2"/>
<path d="M20.978 14.0559C20.978 14.0559 20.3044 17.8316 22.662 18.2512C25.0196 18.6707 23.6724 14.0559 23.6724 14.0559" stroke="black" stroke-width="2"/>
<path d="M33.733 26.4573C33.733 26.4573 39.2198 31.0801 42.1045 27.6531C44.9893 24.2261 36.2531 22.0922 36.2531 22.0922" stroke="black" stroke-width="2"/>
</svg>
