<svg width="50" height="30" viewBox="0 0 50 30" fill="none" xmlns="http://www.w3.org/2000/svg">
<path d="M9.62785 2.20752C9.62785 2.20752 22.9838 18.9891 19.1679 24.7429C15.3519 30.4966 1.99586 28.5787 1.51886 24.7429C1.04186 20.9071 9.62785 2.20752 9.62785 2.20752ZM9.62785 2.20752C27.9446 4.89258 41.7458 3.32629 46.3568 2.20752C46.3568 2.20752 37.2938 20.9071 30.6158 20.9071" stroke="black" stroke-width="3"/>
<path d="M38.8807 3.45386C38.8807 3.45386 37.6346 8.43798 43.2418 8.43798" stroke="black" stroke-width="2"/>
<path d="M21.5414 3.45386C21.5414 3.45386 20.7462 7.91092 23.5292 8.40615C26.3123 8.90138 24.722 3.45386 24.722 3.45386" stroke="black" stroke-width="2"/>
<path d="M36.598 18.0931C36.598 18.0931 43.0749 23.5501 46.4803 19.5047C49.8856 15.4593 39.5729 12.9404 39.5729 12.9404" stroke="black" stroke-width="2"/>
</svg>
