<svg width="55" height="50" viewBox="0 0 55 50" fill="none" xmlns="http://www.w3.org/2000/svg">
<path d="M16.6704 12.7112C16.6704 12.7112 23.7 32.9742 18.1908 37.1354C12.6816 41.2966 0.719046 35.0548 1.54209 31.2781C2.36513 27.5014 16.6704 12.7112 16.6704 12.7112ZM16.6704 12.7112C33.058 21.323 46.5968 24.4257 51.3177 24.9006C51.3177 24.9006 36.5625 39.5326 30.263 37.3163" stroke="white" stroke-width="3"/>
<path d="M43.8516 23.5952C43.8516 23.5952 41.0221 27.8833 46.3115 29.7442" stroke="white" stroke-width="2"/>
<path d="M36.8397 36.647C36.8397 36.647 42.7859 39.3326 47.3409 36.6469C51.896 33.9611 41.3561 32.7736 41.3561 32.7736" stroke="white" stroke-width="2"/>
<path d="M25.3412 23.5C25.3412 23.5 26.8412 27 29.8412 23.5" stroke="white" stroke-width="2"/>
<path d="M28.3412 1H37.3412L28.3412 8H37.3412" stroke="white" stroke-width="2"/>
<path d="M38.3412 11H43.3412L38.3412 15H43.3412" stroke="white"/>
<path d="M44.3412 17H48.3412L44.3412 20H48.3412" stroke="white"/>
</svg>
