<svg width="58" height="31" viewBox="0 0 58 31" fill="none" xmlns="http://www.w3.org/2000/svg">
<path d="M8.73569 5.81506C8.73569 5.81506 20.6257 20.7547 17.2286 25.8769C13.8314 30.999 1.9414 29.2917 1.51676 25.8769C1.09211 22.4621 8.73569 5.81506 8.73569 5.81506ZM8.73569 5.81506C25.042 8.20541 37.3284 6.81104 41.4332 5.81506C41.4332 5.81506 33.365 22.4621 27.42 22.4621" stroke="white" stroke-width="3"/>
<path d="M34.7777 6.92468C34.7777 6.92468 33.6684 11.3617 38.6601 11.3617" stroke="white" stroke-width="2"/>
<path d="M19.3416 6.92468C19.3416 6.92468 18.6337 10.8925 21.1113 11.3334C23.5888 11.7743 22.1731 6.92468 22.1731 6.92468" stroke="white" stroke-width="2"/>
<path d="M36.0974 15.5294C36.0974 15.5294 26.5974 10.5294 25.5974 21.0294" stroke="white" stroke-width="2"/>
<path d="M46.5974 6.3396L55.0974 0.8396" stroke="white" stroke-width="2"/>
<path d="M45.0974 12.8396H57.5974" stroke="white" stroke-width="2"/>
<path d="M46.5974 20.3396L56.5974 23.8396" stroke="white" stroke-width="2"/>
</svg>
